<?xml version="1.0" encoding="utf-8" ?>
<svg baseProfile="full" height="1160" version="1.1" width="1160" xmlns="http://www.w3.org/2000/svg" xmlns:ev="http://www.w3.org/2001/xml-events" xmlns:xlink="http://www.w3.org/1999/xlink"><defs /><text fill="#111827" font-family="Segoe UI, Arial, sans-serif" font-size="18" font-weight="bold" x="40" y="28">Relazioni: soilbody</text><rect fill="#F9FBFF" height="194" stroke="#334155" stroke-width="1.4" width="480" x="340.0" y="460.0" /><rect fill="#2F4F6F" height="30" width="480" x="340.0" y="460.0" /><text fill="#FFFFFF" font-family="Segoe UI, Arial, sans-serif" font-size="14" font-weight="bold" x="350.0" y="480.0">soilbody</text><text fill="#0F172A" font-family="Segoe UI, Arial, sans-serif" font-size="12" x="350.0" y="500.0">🔑 id : INTEGER</text><text fill="#0F172A" font-family="Segoe UI, Arial, sans-serif" font-size="12" x="350.0" y="518.0">guid : TEXT</text><text fill="#0F172A" font-family="Segoe UI, Arial, sans-serif" font-size="12" x="350.0" y="536.0">inspireid_localid : TEXT</text><text fill="#0F172A" font-family="Segoe UI, Arial, sans-serif" font-size="12" x="350.0" y="554.0">inspireid_namespace : TEXT</text><text fill="#0F172A" font-family="Segoe UI, Arial, sans-serif" font-size="12" x="350.0" y="572.0">inspireid_versionid : TEXT</text><text fill="#0F172A" font-family="Segoe UI, Arial, sans-serif" font-size="12" x="350.0" y="590.0">beginlifespanversion : DATETIME</text><text fill="#0F172A" font-family="Segoe UI, Arial, sans-serif" font-size="12" x="350.0" y="608.0">endlifespanversion : DATETIME</text><text fill="#0F172A" font-family="Segoe UI, Arial, sans-serif" font-size="12" x="350.0" y="626.0">soilbodylabel : TEXT</text><rect fill="#FFF" height="90" stroke="#334155" stroke-width="1.2" width="260" x="450.0" y="235.0" /><rect fill="#E2E8F0" height="26" width="260" x="450.0" y="235.0" /><text fill="#111827" font-family="Segoe UI, Arial, sans-serif" font-size="13" font-weight="bold" x="458.0" y="253.0">derivedprofilepresenceinsoilbody</text><text fill="#111827" font-family="Segoe UI, Arial, sans-serif" font-size="12" x="458.0" y="275.0">FK: guid_soilbody</text><rect fill="#FFF" height="90" stroke="#334155" stroke-width="1.2" width="260" x="709.8076211353316" y="685.0" /><rect fill="#E2E8F0" height="26" width="260" x="709.8076211353316" y="685.0" /><text fill="#111827" font-family="Segoe UI, Arial, sans-serif" font-size="13" font-weight="bold" x="717.8076211353316" y="703.0">isbasedonsoilbody</text><text fill="#111827" font-family="Segoe UI, Arial, sans-serif" font-size="12" x="717.8076211353316" y="725.0">FK: guid_soilbody</text><rect fill="#FFF" height="90" stroke="#334155" stroke-width="1.2" width="260" x="190.19237886466846" y="685.0000000000001" /><rect fill="#E2E8F0" height="26" width="260" x="190.19237886466846" y="685.0000000000001" /><text fill="#111827" font-family="Segoe UI, Arial, sans-serif" font-size="13" font-weight="bold" x="198.19237886466846" y="703.0000000000001">soilbody_geom</text><text fill="#111827" font-family="Segoe UI, Arial, sans-serif" font-size="12" x="198.19237886466846" y="725.0000000000001">FK: guid_soilbody</text><polyline fill="none" points="340.0,514.0 324.0,514.0 320,512 320,352 720,352 720,336 736,336 736,272 726.0,271.0 710.0,271.0" stroke="#334155" stroke-width="1.6" /><line stroke="#334155" stroke-width="2" x1="330.0" x2="330.0" y1="520.0" y2="508.0" /><line stroke="#334155" stroke-width="2" x1="720.0" x2="709.3510234242431" y1="271.0" y2="278.4564936725636" /><line stroke="#334155" stroke-width="2" x1="720.0" x2="707.0" y1="271.0" y2="271.0" /><line stroke="#334155" stroke-width="2" x1="720.0" x2="709.3510234242431" y1="271.0" y2="263.5435063274364" /><polyline fill="none" points="820.0,514.0 836.0,514.0 848,512 848,656 992,656 992,800 688,800 688,720 693.8076211353316,721.0 709.8076211353316,721.0" stroke="#334155" stroke-width="1.6" /><line stroke="#334155" stroke-width="2" x1="830.0" x2="830.0" y1="508.0" y2="520.0" /><line stroke="#334155" stroke-width="2" x1="699.8076211353316" x2="710.4565977110885" y1="721.0" y2="713.5435063274364" /><line stroke="#334155" stroke-width="2" x1="699.8076211353316" x2="712.8076211353316" y1="721.0" y2="721.0" /><line stroke="#334155" stroke-width="2" x1="699.8076211353316" x2="710.4565977110885" y1="721.0" y2="728.4564936725636" /><polyline fill="none" points="340.0,514.0 324.0,514.0 320,512 320,656 176,656 176,672 160,672 160,784 176,784 176,800 464,800 464,784 480,784 480,720 466.19237886466846,721.0000000000001 450.19237886466846,721.0000000000001" stroke="#334155" stroke-width="1.6" /><line stroke="#334155" stroke-width="2" x1="330.0" x2="330.0" y1="520.0" y2="508.0" /><line stroke="#334155" stroke-width="2" x1="460.19237886466846" x2="449.5434022889116" y1="721.0000000000001" y2="728.4564936725637" /><line stroke="#334155" stroke-width="2" x1="460.19237886466846" x2="447.19237886466846" y1="721.0000000000001" y2="721.0000000000001" /><line stroke="#334155" stroke-width="2" x1="460.19237886466846" x2="449.5434022889116" y1="721.0000000000001" y2="713.5435063274365" /></svg>